<?xml version="1.0" encoding="utf-8"?>
<!-- Generator: Adobe Illustrator 16.0.0, SVG Export Plug-In . SVG Version: 6.00 Build 0)  -->
<!DOCTYPE svg PUBLIC "-//W3C//DTD SVG 1.1//EN" "http://www.w3.org/Graphics/SVG/1.1/DTD/svg11.dtd">
<svg version="1.1" id="Camada_1" xmlns="http://www.w3.org/2000/svg" xmlns:xlink="http://www.w3.org/1999/xlink" x="0px" y="0px"
	 width="595.28px" height="841.89px" viewBox="0 0 595.28 841.89" enable-background="new 0 0 595.28 841.89" xml:space="preserve">
<g>
	<path fill-rule="evenodd" clip-rule="evenodd" fill="#FFFFFF" d="M349.566,344.973c7.397,10.319,8.716,21.518,6.462,33.649
		c-4.05,21.793-22.092,41.058-44.028,45.064c-11.013,2.011-22.387,1.959-33.55,3.252c-12.094,1.4-24.249,2.712-36.158,5.136
		c-9.007,1.833-17.229,6.08-23.769,14.072c2.644-0.144,4.602-0.021,6.464-0.388c15.971-3.138,31.817-2.384,47.736,0.703
		c16.378,3.177,32.792,6.054,49.669,3.465c16.56-2.54,30.255-10.258,40.025-23.456c12.342-16.674,15.322-35.869,10.42-55.962
		C369.803,358.071,361.8,349.529,349.566,344.973z M325.958,339.412c1.49,0.813,2.124,1.074,2.663,1.465
		c9.709,7.029,9.813,18.781,0.576,26.259c-9.141,7.402-19.262,12.573-30.576,15.784c-20.747,5.888-40.387,14.129-56.602,28.91
		c-5.968,5.44-10.414,12.031-14.502,20.529c3.26-1.563,5.235-2.586,7.27-3.473c14.68-6.396,30.464-6.507,45.997-7.984
		c8.904-0.848,18.043-0.465,26.709-2.336c26.299-5.682,44.197-23.309,43.973-53.333C351.36,351.304,337.963,339.043,325.958,339.412
		z M260.868,449.821c-0.162,0.268-0.323,0.535-0.485,0.803c7.195,4.251,14.653,8.119,21.529,12.834
		c13.973,9.582,29.125,13.931,46.058,12.481c25.381-2.171,43.479-15.213,55.274-37.213c8.865-16.535,9.778-34.191,4.496-51.981
		c-1.826-6.155-5.377-11.798-8.141-17.676c-0.469,0.188-0.938,0.374-1.406,0.562c3.826,10.126,3.318,20.491,1.776,30.863
		c-2.297,15.452-9.242,28.804-20.616,39.228c-18.101,16.59-40.688,18.768-63.721,16.756
		C283.94,455.456,272.45,452.113,260.868,449.821z M255.145,394.955c4.768-2.497,8.964-5.195,13.517-6.985
		c14.091-5.541,28.484-10.346,42.415-16.251c5.812-2.464,11.245-6.435,15.97-10.698c6.578-5.938,4.925-14.595-2.77-19.001
		c-5.72-3.275-11.804-3.204-17.826-1.741c-19.799,4.808-35.168,15.837-44.986,33.827
		C258.057,380.348,254.697,386.903,255.145,394.955z M247.185,472.759c8.46,5.429,15.804,10.11,23.117,14.843
		c13.681,8.853,28.561,12.914,44.942,13.568c28.896,1.154,56.871-19.447,64.565-46.391c-7.448,5.87-15.605,14.252-25.415,19.606
		c-17.463,9.529-37.09,9.127-56.218,7.021C281.536,479.574,265.1,475.875,247.185,472.759z M291.159,475.343
		c-11.574-7.331-22.055-14.125-32.712-20.628c-3.309-2.019-6.986-4.234-10.69-4.659c-12.676-1.456-24.155,2.447-34.497,9.693
		c-2.947,2.065-5.553,4.619-8.315,6.948C234.417,461.996,262.082,469.469,291.159,475.343z"/>
	<path fill-rule="evenodd" clip-rule="evenodd" d="M349.566,344.973c12.233,4.556,20.236,13.099,23.271,25.536
		c4.902,20.093,1.922,39.288-10.42,55.962c-9.771,13.198-23.466,20.916-40.025,23.456c-16.877,2.589-33.291-0.288-49.669-3.465
		c-15.919-3.087-31.766-3.841-47.736-0.703c-1.862,0.366-3.82,0.244-6.464,0.388c6.54-7.992,14.761-12.239,23.769-14.072
		c11.91-2.424,24.064-3.735,36.158-5.136c11.163-1.293,22.537-1.241,33.55-3.252c21.937-4.006,39.979-23.271,44.028-45.064
		C358.282,366.49,356.964,355.292,349.566,344.973z"/>
	<path fill-rule="evenodd" clip-rule="evenodd" d="M325.958,339.412c12.005-0.368,25.402,11.892,25.507,25.821
		c0.225,30.025-17.674,47.651-43.973,53.333c-8.666,1.872-17.805,1.489-26.709,2.336c-15.533,1.477-31.317,1.588-45.997,7.984
		c-2.034,0.887-4.009,1.91-7.27,3.473c4.089-8.498,8.535-15.089,14.502-20.529c16.215-14.781,35.855-23.022,56.602-28.91
		c11.314-3.211,21.436-8.382,30.576-15.784c9.237-7.479,9.133-19.23-0.576-26.259C328.082,340.486,327.448,340.224,325.958,339.412z
		"/>
	<path fill-rule="evenodd" clip-rule="evenodd" d="M260.868,449.821c11.582,2.292,23.072,5.635,34.765,6.656
		c23.032,2.012,45.62-0.166,63.721-16.756c11.374-10.424,18.319-23.775,20.616-39.228c1.542-10.373,2.05-20.737-1.776-30.863
		c0.469-0.188,0.938-0.374,1.406-0.562c2.764,5.877,6.314,11.521,8.141,17.676c5.282,17.791,4.369,35.446-4.496,51.981
		c-11.795,22-29.894,35.042-55.274,37.213c-16.933,1.449-32.085-2.899-46.058-12.481c-6.876-4.715-14.334-8.583-21.529-12.834
		C260.544,450.356,260.706,450.088,260.868,449.821z"/>
	<path fill-rule="evenodd" clip-rule="evenodd" d="M255.145,394.955c-0.447-8.052,2.912-14.606,6.319-20.85
		c9.818-17.99,25.187-29.019,44.986-33.827c6.022-1.463,12.106-1.534,17.826,1.741c7.694,4.406,9.348,13.063,2.77,19.001
		c-4.725,4.263-10.158,8.234-15.97,10.698c-13.931,5.905-28.323,10.71-42.415,16.251
		C264.108,389.76,259.912,392.458,255.145,394.955z"/>
	<path fill-rule="evenodd" clip-rule="evenodd" d="M247.185,472.759c17.915,3.115,34.351,6.814,50.992,8.647
		c19.128,2.106,38.755,2.509,56.218-7.021c9.81-5.354,17.967-13.736,25.415-19.606c-7.694,26.943-35.67,47.545-64.565,46.391
		c-16.382-0.654-31.262-4.716-44.942-13.568C262.989,482.87,255.645,478.188,247.185,472.759z"/>
	<path fill-rule="evenodd" clip-rule="evenodd" d="M291.159,475.343c-29.078-5.874-56.742-13.348-86.215-8.646
		c2.762-2.329,5.368-4.883,8.315-6.948c10.342-7.246,21.821-11.149,34.497-9.693c3.704,0.425,7.381,2.641,10.69,4.659
		C269.104,461.218,279.585,468.012,291.159,475.343z"/>
</g>
</svg>
