<?xml version="1.0" standalone="no"?>
<!DOCTYPE svg PUBLIC "-//W3C//DTD SVG 20010904//EN"
 "http://www.w3.org/TR/2001/REC-SVG-20010904/DTD/svg10.dtd">
<svg version="1.0" xmlns="http://www.w3.org/2000/svg"
 width="187.000000pt" height="163.000000pt" viewBox="0 0 187.000000 163.000000"
 preserveAspectRatio="xMidYMid meet">
<metadata>
Created by potrace 1.15, written by Peter Selinger 2001-2017
</metadata>
<g transform="translate(0.000000,163.000000) scale(0.100000,-0.100000)"
fill="#F5F5F5" stroke="none">
<path d="M985 1611 c-195 -56 -339 -177 -430 -358 -28 -56 -40 -94 -43 -136
l-4 -58 63 35 c35 19 156 69 269 111 235 89 285 112 357 167 90 69 105 144 40
205 -59 55 -140 67 -252 34z"/>
<path d="M1225 1615 c11 -9 25 -19 30 -23 32 -21 55 -67 55 -109 0 -59 -20
-95 -80 -142 -83 -66 -151 -99 -311 -152 -251 -83 -373 -143 -504 -250 -76
-62 -200 -228 -182 -245 2 -2 33 9 68 24 117 53 227 71 550 92 182 12 245 26
355 80 94 46 176 125 218 212 32 65 56 173 56 253 0 136 -105 258 -234 272
-39 4 -40 4 -21 -12z"/>
<path d="M1481 1513 c134 -265 -61 -636 -378 -718 -31 -8 -117 -20 -192 -26
-173 -13 -433 -46 -524 -65 -38 -8 -96 -28 -127 -45 -60 -32 -129 -94 -117
-105 4 -4 46 -1 94 7 141 22 293 15 498 -21 403 -71 631 -27 802 154 76 80
133 178 158 276 33 123 17 339 -31 432 -26 50 -95 118 -146 144 -26 13 -52 24
-57 24 -5 0 4 -26 20 -57z"/>
<path d="M1744 1304 c32 -141 26 -260 -19 -403 -59 -186 -211 -340 -402 -406
-89 -31 -234 -48 -348 -40 -78 6 -359 56 -400 71 -9 4 -15 0 -15 -7 0 -8 21
-25 47 -39 25 -13 85 -49 132 -79 188 -118 321 -159 482 -147 252 19 428 127
558 340 63 104 83 177 89 313 5 147 -11 235 -66 343 -39 78 -70 107 -58 54z"/>
<path d="M300 519 c-85 -15 -179 -63 -272 -141 l-27 -23 197 0 c208 -1 246 -5
530 -66 79 -17 146 -28 148 -26 5 4 -145 102 -323 211 -89 55 -138 64 -253 45z"/>
<path d="M1660 398 c-112 -94 -187 -138 -290 -170 -68 -21 -93 -23 -260 -22
-190 1 -203 3 -578 72 -56 11 -102 16 -102 12 0 -11 287 -190 348 -217 126
-56 323 -84 451 -64 207 32 401 173 491 354 23 47 40 91 38 100 -2 10 -31 -9
-98 -65z"/>
</g>
</svg>
