<svg aria-hidden="true" style="position: absolute; width: 0; height: 0; overflow: hidden;" version="1.1" xmlns="http://www.w3.org/2000/svg" xmlns:xlink="http://www.w3.org/1999/xlink">
<defs>
<symbol id="icon-weights" viewBox="0 0 32 32">
<title>weights</title>
<path d="M23 17h-13v3.494c0 0.835-0.672 1.506-1.5 1.506-0.834 0-1.5-0.674-1.5-1.506v-0.579c-0.156 0.055-0.325 0.085-0.5 0.085-0.834 0-1.5-0.672-1.5-1.502v-1.498h-2v-1h2v-1.498c0-0.831 0.672-1.502 1.5-1.502 0.176 0 0.344 0.030 0.5 0.085v0-0.578c0-0.835 0.672-1.506 1.5-1.506 0.834 0 1.5 0.674 1.5 1.506v3.494h13v-3.494c0-0.835 0.672-1.506 1.5-1.506 0.834 0 1.5 0.674 1.5 1.506v0.579c0.156-0.055 0.325-0.085 0.5-0.085 0.834 0 1.5 0.672 1.5 1.502v1.498h2v1h-2v1.498c0 0.831-0.672 1.502-1.5 1.502-0.176 0-0.344-0.030-0.5-0.085v0.578c0 0.835-0.672 1.506-1.5 1.506-0.834 0-1.5-0.674-1.5-1.506v-3.494z"></path>
</symbol>
<symbol id="icon-air" viewBox="0 0 20 20">
<title>air</title>
<path d="M2.643 6.357c1.747-1.5 3.127-2.686 6.872-0.57 1.799 1.016 3.25 1.4 4.457 1.398 2.115 0 3.486-1.176 4.671-2.193 0.423-0.363 0.477-1.008 0.122-1.439-0.357-0.432-0.987-0.488-1.41-0.125-1.746 1.502-3.127 2.688-6.872 0.57-4.948-2.793-7.266-0.803-9.128 0.797-0.422 0.363-0.476 1.006-0.121 1.439 0.356 0.43 0.986 0.487 1.409 0.123zM17.355 8.535c-1.746 1.5-3.127 2.688-6.872 0.57-4.948-2.795-7.266-0.804-9.128 0.795-0.422 0.363-0.477 1.008-0.121 1.439s0.986 0.488 1.409 0.125c1.747-1.501 3.127-2.687 6.872-0.572 1.799 1.018 3.25 1.4 4.457 1.4 2.115 0 3.486-1.176 4.671-2.195 0.423-0.363 0.477-1.008 0.122-1.438-0.356-0.433-0.987-0.487-1.41-0.124zM17.355 13.641c-1.746 1.502-3.127 2.688-6.872 0.572-4.948-2.795-7.266-0.805-9.128 0.795-0.422 0.363-0.477 1.008-0.121 1.439s0.986 0.486 1.409 0.123c1.747-1.5 3.127-2.685 6.872-0.57 1.799 1.016 3.25 1.4 4.457 1.4 2.115 0 3.486-1.178 4.671-2.195 0.423-0.363 0.477-1.008 0.122-1.439s-0.987-0.487-1.41-0.125z"></path>
</symbol>
<symbol id="icon-area-graph" viewBox="0 0 20 20">
<title>area-graph</title>
<path d="M20 2v16h-19.68c-0.318 0-0.416-0.209-0.216-0.465l4.469-5.748c0.199-0.256 0.553-0.283 0.789-0.062l1.419 1.334c0.235 0.221 0.572 0.178 0.747-0.096l3.047-4.74c0.175-0.273 0.509-0.312 0.741-0.090l2.171 2.096c0.232 0.225 0.559 0.18 0.724-0.1l5.133-7.785c0.166-0.282 0.406-0.344 0.656-0.344z"></path>
</symbol>
<symbol id="icon-back-in-time" viewBox="0 0 20 20">
<title>back-in-time</title>
<path d="M11 1.799c-4.445 0-8.061 3.562-8.169 7.996v0.205h-2.372l3.594 3.894 3.494-3.894h-2.672v-0.205c0.107-3.303 2.808-5.945 6.125-5.945 3.386 0 6.131 2.754 6.131 6.15s-2.745 6.15-6.131 6.15c-1.357 0-2.611-0.445-3.627-1.193l-1.406 1.504c1.388 1.088 3.135 1.738 5.033 1.738 4.515 0 8.174-3.67 8.174-8.199s-3.659-8.201-8.174-8.201zM10 5v5c0 0.13 0.027 0.26 0.077 0.382s0.124 0.233 0.216 0.325l3.2 3.2c0.283-0.183 0.55-0.389 0.787-0.628l-2.28-2.279v-6h-2z"></path>
</symbol>
<symbol id="icon-chat" viewBox="0 0 20 20">
<title>chat</title>
<path d="M5.8 12.2v-6.2h-3.8c-1.1 0-2 0.9-2 2v6c0 1.1 0.9 2 2 2h1v3l3-3h5c1.1 0 2-0.9 2-2v-1.82c-0.064 0.014-0.132 0.021-0.2 0.021l-7-0.001zM18 1h-9c-1.1 0-2 0.9-2 2v8h7l3 3v-3h1c1.1 0 2-0.899 2-2v-6c0-1.1-0.9-2-2-2z"></path>
</symbol>
<symbol id="icon-circle-with-minus" viewBox="0 0 20 20">
<title>circle-with-minus</title>
<path d="M10 1.6c-4.639 0-8.4 3.761-8.4 8.4s3.761 8.4 8.4 8.4 8.4-3.761 8.4-8.4c0-4.639-3.761-8.4-8.4-8.4zM15 11h-10v-2h10v2z"></path>
</symbol>
<symbol id="icon-circle-with-plus" viewBox="0 0 20 20">
<title>circle-with-plus</title>
<path d="M10 1.6c-4.639 0-8.4 3.761-8.4 8.4s3.761 8.4 8.4 8.4 8.4-3.761 8.4-8.4c0-4.639-3.761-8.4-8.4-8.4zM15 11h-4v4h-2v-4h-4v-2h4v-4h2v4h4v2z"></path>
</symbol>
<symbol id="icon-clipboard" viewBox="0 0 20 20">
<title>clipboard</title>
<path d="M15.6 2l-1.2 3h-8.8l-1.2-3c-0.771 0-1.4 0.629-1.4 1.4v15.2c0 0.77 0.629 1.4 1.399 1.4h11.2c0.77 0 1.4-0.631 1.4-1.4v-15.2c0.001-0.771-0.63-1.4-1.399-1.4zM13.6 4l0.9-2h-2.181l-0.719-2h-3.2l-0.72 2h-2.18l0.899 2h7.201z"></path>
</symbol>
<symbol id="icon-compass" viewBox="0 0 20 20">
<title>compass</title>
<path d="M5.454 14.548c0 0 4.568-0.627 6.518-2.576s2.576-6.518 2.576-6.518-4.569 0.627-6.518 2.576-2.576 6.518-2.576 6.518zM9.017 9.015c0.818-0.818 2.385-1.4 3.729-1.762-0.361 1.342-0.945 2.92-1.76 3.732-0.543 0.545-1.426 0.545-1.969 0-0.545-0.543-0.545-1.425 0-1.97zM10.001 0.4c-5.303 0-9.601 4.298-9.601 9.6 0 5.303 4.298 9.601 9.601 9.601 5.301 0 9.6-4.298 9.6-9.601s-4.299-9.6-9.6-9.6zM10 17.6c-4.197 0-7.6-3.402-7.6-7.6 0-4.197 3.402-7.6 7.6-7.6 4.197 0 7.601 3.402 7.601 7.6 0 4.197-3.404 7.6-7.601 7.6z"></path>
</symbol>
<symbol id="icon-direction" viewBox="0 0 20 20">
<title>direction</title>
<path d="M18.060 1.941c-0.586-0.586-1.144-0.033-3.041 0.879-5.075 2.439-13.919 7.396-13.919 7.396l7.599 1.084 1.085 7.599c0 0 4.958-8.843 7.396-13.916 0.912-1.898 1.465-2.456 0.88-3.042zM16.236 3.896l-5.519 10.247-0.561-4.655 6.080-5.592z"></path>
</symbol>
<symbol id="icon-drink" viewBox="0 0 20 20">
<title>drink</title>
<path d="M17.538 2.639c0.394-0.545 0.462-1.639 0.462-1.639h-16c0 0 0.068 1.094 0.462 1.639l6.538 8.361v6h-2c-2 0-2 2-2 2h10c0 0 0-2-2-2h-2v-6l6.538-8.361zM9.4 6c0-0.885 0.716-1.6 1.6-1.6s1.6 0.715 1.6 1.6c0 0.883-0.716 1.6-1.6 1.6s-1.6-0.717-1.6-1.6z"></path>
</symbol>
<symbol id="icon-email" viewBox="0 0 20 20">
<title>email</title>
<path d="M14.608 12.172c0 0.84 0.239 1.175 0.864 1.175 1.393 0 2.28-1.775 2.28-4.727 0-4.512-3.288-6.672-7.393-6.672-4.223 0-8.064 2.832-8.064 8.184 0 5.112 3.36 7.896 8.52 7.896 1.752 0 2.928-0.192 4.727-0.792l0.386 1.607c-1.776 0.577-3.674 0.744-5.137 0.744-6.768 0-10.393-3.72-10.393-9.456 0-5.784 4.201-9.72 9.985-9.72 6.024 0 9.215 3.6 9.215 8.016 0 3.744-1.175 6.6-4.871 6.6-1.681 0-2.784-0.672-2.928-2.161-0.432 1.656-1.584 2.161-3.145 2.161-2.088 0-3.84-1.609-3.84-4.848 0-3.264 1.537-5.28 4.297-5.28 1.464 0 2.376 0.576 2.782 1.488l0.697-1.272h2.016v7.057h0.002zM11.657 9.004c0-1.319-0.985-1.872-1.801-1.872-0.888 0-1.871 0.719-1.871 2.832 0 1.68 0.744 2.616 1.871 2.616 0.792 0 1.801-0.504 1.801-1.896v-1.68z"></path>
</symbol>
<symbol id="icon-flag" viewBox="0 0 20 20">
<title>flag</title>
<path d="M18.926 5.584c-9.339 13.568-6.142-0.26-14.037 6.357l1.795 7.059h-2.019l-3.665-14.41 1.85-0.664c8.849-6.471 4.228 5.82 15.637 1.254 0.364-0.147 0.655 0.090 0.439 0.404z"></path>
</symbol>
<symbol id="icon-gauge" viewBox="0 0 20 20">
<title>gauge</title>
<path d="M8.127 13.6c-0.689 1.197-0.225 2.18 0.732 2.732 0.956 0.553 2.041 0.465 2.732-0.732 0.689-1.195 5.047-11.865 4.668-12.084s-7.442 8.888-8.132 10.084zM10 6c0.438 0 0.864 0.037 1.281 0.109 0.438-0.549 0.928-1.154 1.405-1.728-0.852-0.246-1.752-0.381-2.686-0.381-5.607 0-10 4.729-10 10.766 0 0.371 0.016 0.742 0.049 1.103 0.049 0.551 0.54 0.955 1.084 0.908 0.551-0.051 0.957-0.535 0.908-1.086-0.027-0.302-0.041-0.615-0.041-0.925 0-4.916 3.514-8.766 8-8.766zM17.219 7.25c-0.279 0.75-0.574 1.514-0.834 2.174 1.015 1.47 1.615 3.314 1.615 5.342 0 0.316-0.015 0.635-0.043 0.943-0.050 0.551 0.355 1.037 0.905 1.088 0.030 0.002 0.061 0.004 0.092 0.004 0.511 0 0.948-0.391 0.995-0.91 0.033-0.37 0.051-0.748 0.051-1.125 0-2.954-1.053-5.59-2.781-7.516z"></path>
</symbol>
<symbol id="icon-heart-outlined" viewBox="0 0 20 20">
<title>heart-outlined</title>
<path d="M17.19 4.156c-1.672-1.535-4.383-1.535-6.055 0l-1.135 1.041-1.136-1.041c-1.672-1.535-4.382-1.535-6.054 0-1.881 1.726-1.881 4.519 0 6.245l7.19 6.599 7.19-6.599c1.88-1.726 1.88-4.52 0-6.245zM16.124 9.375l-6.124 5.715-6.125-5.715c-0.617-0.567-0.856-1.307-0.856-2.094s0.138-1.433 0.756-1.999c0.545-0.501 1.278-0.777 2.063-0.777s1.517 0.476 2.062 0.978l2.1 1.825 2.099-1.826c0.546-0.502 1.278-0.978 2.063-0.978s1.518 0.276 2.063 0.777c0.618 0.566 0.755 1.212 0.755 1.999s-0.238 1.528-0.856 2.095z"></path>
</symbol>
<symbol id="icon-heart" viewBox="0 0 20 20">
<title>heart</title>
<path d="M17.19 4.155c-1.672-1.534-4.383-1.534-6.055 0l-1.135 1.042-1.136-1.042c-1.672-1.534-4.382-1.534-6.054 0-1.881 1.727-1.881 4.52 0 6.246l7.19 6.599 7.19-6.599c1.88-1.726 1.88-4.52 0-6.246z"></path>
</symbol>
<symbol id="icon-hour-glass" viewBox="0 0 20 20">
<title>hour-glass</title>
<path d="M15.6 4.576c0-2.139 0-2.348 0-2.348 0-0.789-2.508-2.228-5.6-2.228-3.093 0-5.6 1.439-5.6 2.228 0 0 0 0.209 0 2.348 0 2.141 3.877 3.908 3.877 5.424 0 1.514-3.877 3.281-3.877 5.422s0 2.35 0 2.35c0 0.788 2.507 2.228 5.6 2.228 3.092 0 5.6-1.44 5.6-2.229 0 0 0-0.209 0-2.35s-3.877-3.908-3.877-5.422c0-1.515 3.877-3.282 3.877-5.423zM5.941 2.328c0.696-0.439 2-1.082 4.114-1.082s4.006 1.082 4.006 1.082c0.142 0.086 0.698 0.383 0.317 0.609-0.838 0.497-2.478 1.020-4.378 1.020s-3.484-0.576-4.324-1.074c-0.381-0.225 0.265-0.555 0.265-0.555zM10.501 10c0 1.193 0.996 1.961 2.051 2.986 0.771 0.748 1.826 1.773 1.826 2.435v1.328c-0.97-0.483-3.872-0.955-3.872-2.504 0-0.783-1.013-0.783-1.013 0 0 1.549-2.902 2.021-3.872 2.504v-1.328c0-0.662 1.056-1.688 1.826-2.435 1.055-1.025 2.051-1.793 2.051-2.986s-0.996-1.961-2.051-2.986c-0.771-0.75-1.826-1.775-1.826-2.438l-0.046-0.998c1.026 0.553 2.652 1.078 4.425 1.078 1.772 0 3.406-0.525 4.433-1.078l-0.055 0.998c0 0.662-1.056 1.688-1.826 2.438-1.054 1.025-2.051 1.793-2.051 2.986z"></path>
</symbol>
<symbol id="icon-infinity" viewBox="0 0 20 20">
<title>infinity</title>
<path d="M15.902 5.6c-2.079 0-4.358 1.158-5.902 2.916-1.545-1.758-3.825-2.916-5.904-2.916-1.98 0-4.096 1.156-4.096 4.4s2.116 4.398 4.096 4.4v0c2.079 0 4.358-1.158 5.903-2.916 1.544 1.758 3.823 2.916 5.902 2.916 1.981 0 4.099-1.156 4.099-4.4s-2.118-4.4-4.098-4.4zM4.096 12.641c-1.512 0-2.296-0.889-2.296-2.641s0.784-2.641 2.296-2.641c1.673 0 3.614 1.086 4.807 2.641-1.193 1.555-3.134 2.641-4.807 2.641zM15.902 12.641c-1.673 0-3.614-1.086-4.807-2.641 1.192-1.555 3.135-2.641 4.807-2.641 1.512 0 2.298 0.889 2.298 2.641s-0.786 2.641-2.298 2.641z"></path>
</symbol>
<symbol id="icon-leaf" viewBox="0 0 20 20">
<title>leaf</title>
<path d="M19.025 3.587c-4.356 2.556-4.044 7.806-7.096 10.175-2.297 1.783-5.538 0.88-7.412 0.113 0 0-1.27 1.603-2.181 3.74-0.305 0.717-1.644-0.073-1.409-0.68 2.978-7.685 13.11-11.519 13.11-11.519s-7.149-0.303-11.927 5.94c-0.128-1.426-0.34-5.284 3.36-7.65 5.016-3.211 14.572-0.715 13.555-0.119z"></path>
</symbol>
<symbol id="icon-light-up" viewBox="0 0 20 20">
<title>light-up</title>
<path d="M19 9.199c-0.182 0-0.799 0-0.98 0-0.553 0-1 0.359-1 0.801s0.447 0.799 1 0.799c0.182 0 0.799 0 0.98 0 0.552 0 1-0.357 1-0.799 0-0.441-0.449-0.801-1-0.801zM10 4.5c-3.051 0-5.5 2.449-5.5 5.5s2.449 5.5 5.5 5.5c3.050 0 5.5-2.449 5.5-5.5s-2.451-5.5-5.5-5.5zM10 14c-2.211 0-4-1.791-4-4 0-2.211 1.789-4 4-4 2.209 0 4 1.789 4 4 0 2.209-1.791 4-4 4zM3 10c0-0.441-0.449-0.801-1-0.801-0.185 0-0.816 0-1 0-0.553 0-1 0.359-1 0.801s0.447 0.799 1 0.799c0.184 0 0.815 0 1 0 0.551 0 1-0.358 1-0.799zM10 3c0.441 0 0.799-0.447 0.799-1 0-0.184 0-0.816 0-1 0-0.553-0.358-1-0.799-1s-0.801 0.447-0.801 1c0 0.184 0 0.816 0 1 0 0.553 0.359 1 0.801 1zM10 17c-0.442 0-0.801 0.447-0.801 1 0 0.184 0 0.816 0 1 0 0.553 0.359 1 0.801 1s0.799-0.447 0.799-1c0-0.184 0-0.816 0-1 0-0.553-0.358-1-0.799-1zM17.365 3.766c0.391-0.391 0.454-0.961 0.142-1.273s-0.883-0.248-1.272 0.143c-0.108 0.107-0.593 0.592-0.7 0.699-0.391 0.391-0.454 0.961-0.142 1.273s0.883 0.248 1.273-0.143c0.107-0.108 0.591-0.592 0.699-0.699zM3.334 15.533c-0.108 0.109-0.593 0.594-0.7 0.701-0.391 0.391-0.454 0.959-0.142 1.271s0.883 0.25 1.272-0.141c0.108-0.107 0.593-0.592 0.7-0.699 0.391-0.391 0.454-0.961 0.142-1.274s-0.883-0.247-1.272 0.142zM3.765 2.635c-0.39-0.391-0.961-0.455-1.273-0.143s-0.248 0.883 0.141 1.274c0.108 0.107 0.593 0.592 0.7 0.699 0.391 0.391 0.96 0.455 1.272 0.143s0.249-0.883-0.141-1.273c-0.107-0.108-0.591-0.593-0.699-0.7zM15.534 16.666c0.108 0.107 0.593 0.592 0.7 0.699 0.391 0.391 0.96 0.453 1.272 0.143 0.312-0.312 0.249-0.883-0.142-1.273-0.107-0.107-0.592-0.592-0.699-0.699-0.391-0.391-0.961-0.455-1.274-0.143s-0.248 0.882 0.143 1.273z"></path>
</symbol>
<symbol id="icon-location-pin" viewBox="0 0 20 20">
<title>location-pin</title>
<path d="M10 2.009c-2.762 0-5 2.229-5 4.99 0 4.774 5 11 5 11s5-6.227 5-11c0-2.76-2.238-4.99-5-4.99zM10 9.76c-1.492 0-2.7-1.209-2.7-2.7s1.208-2.7 2.7-2.7c1.49 0 2.699 1.209 2.699 2.7s-1.209 2.7-2.699 2.7z"></path>
</symbol>
<symbol id="icon-loop" viewBox="0 0 20 20">
<title>loop</title>
<path d="M20 7v7c0 1.103-0.896 2-2 2h-16c-1.104 0-2-0.897-2-2v-7c0-1.104 0.896-2 2-2h7v-2l4 3.5-4 3.5v-2h-6v5h14v-5h-3v-3h4c1.104 0 2 0.896 2 2z"></path>
</symbol>
<symbol id="icon-mail" viewBox="0 0 20 20">
<title>mail</title>
<path d="M1.574 5.286c0.488 0.262 7.248 3.894 7.5 4.029s0.578 0.199 0.906 0.199c0.328 0 0.654-0.064 0.906-0.199s7.012-3.767 7.5-4.029c0.489-0.263 0.951-1.286 0.054-1.286h-16.919c-0.897 0-0.435 1.023 0.053 1.286zM18.613 7.489c-0.555 0.289-7.387 3.849-7.727 4.027s-0.578 0.199-0.906 0.199-0.566-0.021-0.906-0.199-7.133-3.739-7.688-4.028c-0.39-0.204-0.386 0.035-0.386 0.219s0 7.293 0 7.293c0 0.42 0.566 1 1 1h16c0.434 0 1-0.58 1-1 0 0 0-7.108 0-7.292s0.004-0.423-0.387-0.219z"></path>
</symbol>
<symbol id="icon-man" viewBox="0 0 20 20">
<title>man</title>
<path d="M10 4c1.104 0 2-0.896 2-2s-0.896-2-2-2-2 0.895-2 2c0 1.104 0.896 2 2 2zM15.978 11.583c-0.385-1.775-1.058-4.688-2.042-5.894-0.957-1.173-2.885-1.222-3.936-1.222v0c-1.051 0-2.979 0.049-3.936 1.222-0.984 1.206-1.657 4.119-2.042 5.894-0.213 0.983 1.154 1.344 1.511 0.355 0.531-1.473 0.941-2.71 1.839-3.736 0.472 2.907-1.27 7.966-1.372 10.798 0 0.552 0.448 1 1 1 0.426 0 0.79-0.266 0.934-0.642 0.457-1.587 2.066-6.003 2.066-6.003v0 0c0 0 1.609 4.416 2.066 6.003 0.144 0.376 0.508 0.642 0.934 0.642 0.552 0 1-0.448 1-1-0.102-2.832-1.844-7.891-1.372-10.797 0.898 1.026 1.308 2.263 1.839 3.736 0.356 0.988 1.724 0.627 1.511-0.356z"></path>
</symbol>
<symbol id="icon-medal" viewBox="0 0 20 20">
<title>medal</title>
<path d="M10 10c0.528 0 1.026 0.104 1.504 0.256l-6.077-9.115c-0.059-0.088-0.157-0.141-0.263-0.141h-3.556c-0.117 0-0.188 0.131-0.122 0.229l6.231 9.347c0.687-0.356 1.456-0.576 2.283-0.576zM18.392 1h-3.556c-0.106 0-0.204 0.053-0.263 0.141l-3.823 5.734 2 3 5.764-8.646c0.065-0.098-0.005-0.229-0.122-0.229zM10 11c-2.209 0-4 1.791-4 4s1.791 4 4 4 4-1.791 4-4c0-2.209-1.791-4-4-4zM12.112 15.117c0.062 0.064 0.052 0.158-0.022 0.208s-0.095 0.153-0.049 0.229c0.047 0.076 0.018 0.165-0.065 0.199s-0.125 0.13-0.095 0.214-0.017 0.165-0.104 0.181-0.149 0.101-0.137 0.189-0.051 0.158-0.14 0.155c-0.089-0.003-0.167 0.068-0.174 0.156s-0.083 0.144-0.169 0.123-0.178 0.031-0.203 0.117-0.111 0.124-0.191 0.085c-0.080-0.039-0.18-0.006-0.222 0.072s-0.134 0.098-0.205 0.043-0.175-0.044-0.232 0.024-0.151 0.068-0.209 0-0.162-0.079-0.232-0.024-0.162 0.035-0.205-0.043-0.142-0.111-0.222-0.072c-0.080 0.039-0.166 0-0.191-0.085s-0.116-0.138-0.203-0.117-0.163-0.034-0.169-0.123-0.084-0.159-0.173-0.157c-0.089 0.003-0.152-0.067-0.14-0.155s-0.050-0.173-0.137-0.189-0.135-0.097-0.104-0.181-0.013-0.18-0.095-0.214-0.111-0.123-0.065-0.199c0.047-0.076 0.025-0.179-0.049-0.229s-0.083-0.144-0.022-0.208c0.062-0.064 0.062-0.169 0-0.234s-0.052-0.158 0.022-0.208 0.095-0.153 0.049-0.229c-0.047-0.076-0.018-0.165 0.065-0.199s0.125-0.13 0.095-0.214 0.017-0.165 0.104-0.181 0.149-0.101 0.137-0.189 0.051-0.158 0.14-0.155c0.089 0.003 0.167-0.068 0.174-0.156s0.083-0.144 0.169-0.123 0.178-0.031 0.203-0.117 0.111-0.124 0.191-0.085c0.080 0.039 0.18 0.006 0.222-0.072s0.134-0.098 0.205-0.043 0.175 0.044 0.232-0.024 0.151-0.068 0.209 0 0.162 0.079 0.232 0.024 0.162-0.035 0.205 0.043 0.142 0.111 0.222 0.072c0.080-0.039 0.166 0 0.191 0.085s0.116 0.138 0.203 0.117 0.163 0.034 0.169 0.123 0.085 0.159 0.174 0.156c0.089-0.003 0.152 0.067 0.14 0.155s0.050 0.173 0.137 0.189 0.135 0.097 0.104 0.181 0.013 0.18 0.095 0.214 0.111 0.123 0.065 0.199c-0.047 0.076-0.025 0.179 0.049 0.229s0.083 0.144 0.022 0.208-0.063 0.171-0.001 0.235z"></path>
</symbol>
<symbol id="icon-note" viewBox="0 0 20 20">
<title>note</title>
<path d="M14.971 9.438c-0.422 0.656-0.646 0.375-0.52 0 0.336-0.993 0.348-4.528-2.451-4.969l-0.002 11.531c0 1.657-1.735 4-4.998 4-1.657 0-3-0.871-3-2.5 0-2.119 1.927-3.4 4-3.4 1.328 0 2 0.4 2 0.4v-14.5h2c0 2.676 5.986 4.744 2.971 9.438z"></path>
</symbol>
<symbol id="icon-old-phone" viewBox="0 0 20 20">
<title>old-phone</title>
<path d="M17.256 12.253c-0.096-0.667-0.611-1.187-1.274-1.342-2.577-0.604-3.223-2.088-3.332-3.734-0.457-0.085-1.27-0.177-2.65-0.177s-2.193 0.092-2.65 0.177c-0.109 1.646-0.755 3.13-3.332 3.734-0.663 0.156-1.178 0.675-1.274 1.342l-0.497 3.442c-0.175 1.212 0.715 2.305 1.953 2.305h11.6c1.237 0 2.128-1.093 1.953-2.305l-0.497-3.442zM10 15.492c-1.395 0-2.526-1.12-2.526-2.5s1.131-2.5 2.526-2.5 2.526 1.12 2.526 2.5-1.132 2.5-2.526 2.5zM19.95 6c-0.024-1.5-3.842-3.999-9.95-4-6.109 0.001-9.927 2.5-9.95 4s0.021 3.452 2.535 3.127c2.941-0.381 2.76-1.408 2.76-2.876 0-1.024 2.392-1.271 4.655-1.271s4.654 0.247 4.655 1.271c0 1.468-0.181 2.495 2.76 2.876 2.513 0.325 2.558-1.627 2.535-3.127z"></path>
</symbol>
<symbol id="icon-pie-chart" viewBox="0 0 20 20">
<title>pie-chart</title>
<path d="M11 0.958v9.039c0 0.554-0.449 1.003-1.003 1.003h-9.039c0.498 4.555 4.355 8.1 9.042 8.1 5.026 0 9.1-4.074 9.1-9.1 0-4.688-3.545-8.544-8.1-9.042zM9 0.958c-4.226 0.462-7.58 3.816-8.042 8.042h8.042v-8.042z"></path>
</symbol>
<symbol id="icon-quote" viewBox="0 0 20 20">
<title>quote</title>
<path d="M5.315 3.401c-1.61 0-2.916 1.343-2.916 3s1.306 3 2.916 3c2.915 0 0.972 5.799-2.916 5.799v1.4c6.939 0.001 9.658-13.199 2.916-13.199zM13.715 3.401c-1.609 0-2.915 1.343-2.915 3s1.306 3 2.915 3c2.916 0 0.973 5.799-2.915 5.799v1.4c6.938 0.001 9.657-13.199 2.915-13.199z"></path>
</symbol>
<symbol id="icon-retweet" viewBox="0 0 20 20">
<title>retweet</title>
<path d="M5 13v-5h2l-3.5-4-3.5 4h2v6c0 1.104 0.895 2 2 2h9.482l-2.638-3h-5.844zM9.156 7l-2.638-3h9.482c1.104 0 2 0.897 2 2v6h2l-3.5 4-3.5-4h2v-5h-5.844z"></path>
</symbol>
<symbol id="icon-shuffle" viewBox="0 0 20 20">
<title>shuffle</title>
<path d="M15.093 6.694h0.92v2.862l3.987-4.024-3.988-4.025v2.387h-0.92c-3.694 0-5.776 2.738-7.614 5.152-1.652 2.172-3.080 4.049-5.386 4.049h-2.092v2.799h2.093c3.694 0 5.776-2.736 7.614-5.152 1.652-2.173 3.080-4.048 5.386-4.048zM5.41 8.458c0.158-0.203 0.316-0.412 0.477-0.623 0.39-0.514 0.804-1.055 1.252-1.596-1.322-1.234-2.915-2.144-5.046-2.144h-2.093v2.799h2.093c1.327 0 2.362 0.623 3.317 1.564zM16.012 13.294h-0.92c-1.407 0-2.487-0.701-3.491-1.738-0.1 0.131-0.201 0.264-0.303 0.397-0.441 0.58-0.915 1.201-1.439 1.818 1.356 1.324 3 2.324 5.232 2.324h0.92v2.398l3.989-4.025-3.988-4.025v2.851z"></path>
</symbol>
<symbol id="icon-signal" viewBox="0 0 20 20">
<title>signal</title>
<path d="M10 14c-1.094 0-1.981 0.894-1.981 2 0 1.104 0.887 2 1.981 2s1.98-0.896 1.98-2c0-1.105-0.886-2-1.98-2zM5.8 11.758l1.4 1.414c1.546-1.562 4.054-1.562 5.601 0l1.399-1.414c-2.319-2.343-6.081-2.343-8.4 0zM3 8.928l1.4 1.414c3.092-3.123 8.106-3.123 11.199 0l1.401-1.414c-3.865-3.904-10.135-3.904-14 0zM0.199 6.1l1.4 1.414c4.639-4.686 12.161-4.686 16.801 0l1.4-1.414c-5.412-5.467-14.188-5.467-19.601 0z"></path>
</symbol>
<symbol id="icon-star-outlined" viewBox="0 0 20 20">
<title>star-outlined</title>
<path d="M18.8 8.022h-6.413l-2.387-6.722-2.389 6.722h-6.412l5.232 3.947-1.871 6.929 5.44-4.154 5.438 4.154-1.869-6.929 5.231-3.947zM10 12.783l-3.014 2.5 1.243-3.562-2.851-2.3 3.522 0.101 1.1-4.040 1.099 4.040 3.521-0.101-2.851 2.3 1.243 3.562-3.012-2.5z"></path>
</symbol>
<symbol id="icon-star" viewBox="0 0 20 20">
<title>star</title>
<path d="M10 1.3l2.388 6.722h6.412l-5.232 3.948 1.871 6.928-5.439-4.154-5.438 4.154 1.87-6.928-5.233-3.948h6.412l2.389-6.722z"></path>
</symbol>
<symbol id="icon-stopwatch" viewBox="0 0 20 20">
<title>stopwatch</title>
<path d="M7.376 6.745c-0.447 0.275 1.197 4.242 1.598 4.888 0.35 0.569 1.093 0.742 1.658 0.394 0.568-0.352 0.745-1.094 0.395-1.66-0.397-0.648-3.205-3.898-3.651-3.622zM7.041 2.402c0.928-0.323 1.922-0.502 2.959-0.502s2.031 0.179 2.959 0.502c0.329 0.114 0.765-0.115 0.572-0.611-0.141-0.36-0.277-0.712-0.332-0.855-0.131-0.339-0.6-0.619-0.804-0.665-0.772-0.174-1.572-0.271-2.395-0.271s-1.623 0.097-2.396 0.271c-0.204 0.046-0.672 0.326-0.803 0.665-0.055 0.143-0.192 0.495-0.332 0.855-0.193 0.496 0.243 0.726 0.572 0.611zM19.098 3.186c-0.192-0.23-0.396-0.455-0.613-0.672-0.216-0.217-0.441-0.42-0.67-0.613-0.153-0.129-0.603-0.234-0.888 0.051s-1.648 1.647-1.648 1.647c0.402 0.288 0.793 0.605 1.155 0.966s0.677 0.752 0.966 1.155c0 0 1.363-1.362 1.647-1.647 0.286-0.286 0.181-0.735 0.051-0.887zM10 2.9c-4.475 0-8.101 3.626-8.101 8.1s3.626 8.101 8.101 8.101c4.473 0 8.1-3.626 8.1-8.101 0-4.473-3.627-8.1-8.1-8.1zM10 17.101c-3.368 0-6.1-2.731-6.1-6.1s2.731-6.1 6.1-6.1c3.369 0 6.101 2.731 6.101 6.1s-2.732 6.1-6.101 6.1z"></path>
</symbol>
<symbol id="icon-trophy" viewBox="0 0 20 20">
<title>trophy</title>
<path d="M11.18 14.356c0-1.451 1.1-2.254 2.894-3.442 2.194-1.456 4.926-3.265 4.926-7.56 0-0.387-0.317-0.699-0.709-0.699h-3.43c-0.484-0.896-1.929-1.855-4.861-1.855-2.934 0-4.377 0.959-4.862 1.855h-3.431c-0.391 0-0.707 0.313-0.707 0.699 0 4.295 2.73 6.104 4.926 7.559 1.794 1.188 2.894 1.991 2.894 3.442v1.311c-1.884 0.209-3.269 0.906-3.269 1.736 0 0.994 1.992 1.799 4.449 1.799s4.449-0.805 4.449-1.799c0-0.83-1.385-1.527-3.269-1.736v-1.31zM13.957 9.3c0.566-1.199 1.016-2.826 1.088-5.246h2.51c-0.24 2.701-1.862 4.064-3.598 5.246zM10 2.026c2.732-0.002 3.799 1.115 3.798 1.529 0 0.418-1.066 1.533-3.798 1.535-2.732-0.001-3.799-1.116-3.799-1.534-0.001-0.414 1.067-1.532 3.799-1.53zM2.445 4.054h2.509c0.073 2.42 0.521 4.047 1.089 5.246-1.736-1.182-3.359-2.545-3.598-5.246z"></path>
</symbol>
<symbol id="icon-user" viewBox="0 0 20 20">
<title>user</title>
<path d="M7.725 2.146c-1.016 0.756-1.289 1.953-1.239 2.59 0.064 0.779 0.222 1.793 0.222 1.793s-0.313 0.17-0.313 0.854c0.109 1.717 0.683 0.976 0.801 1.729 0.284 1.814 0.933 1.491 0.933 2.481 0 1.649-0.68 2.42-2.803 3.334-2.13 0.918-4.326 2.073-4.326 4.073v1h18v-1c0-2-2.197-3.155-4.328-4.072-2.123-0.914-2.801-1.684-2.801-3.334 0-0.99 0.647-0.667 0.932-2.481 0.119-0.753 0.692-0.012 0.803-1.729 0-0.684-0.314-0.854-0.314-0.854s0.158-1.014 0.221-1.793c0.065-0.817-0.398-2.561-2.3-3.096-0.333-0.34-0.558-0.881 0.466-1.424-2.24-0.105-2.761 1.067-3.954 1.929z"></path>
</symbol>
<symbol id="icon-users" viewBox="0 0 20 20">
<title>users</title>
<path d="M15.989 19.129c0-2.246-2.187-3.389-4.317-4.307-2.123-0.914-2.801-1.684-2.801-3.334 0-0.989 0.648-0.667 0.932-2.481 0.12-0.752 0.692-0.012 0.802-1.729 0-0.684-0.313-0.854-0.313-0.854s0.159-1.013 0.221-1.793c0.064-0.817-0.398-2.56-2.301-3.095-0.332-0.341-0.557-0.882 0.467-1.424-2.24-0.104-2.761 1.068-3.954 1.93-1.015 0.756-1.289 1.953-1.24 2.59 0.065 0.78 0.223 1.793 0.223 1.793s-0.314 0.17-0.314 0.854c0.11 1.718 0.684 0.977 0.803 1.729 0.284 1.814 0.933 1.492 0.933 2.481 0 1.65-0.212 2.21-2.336 3.124-2.131 0.917-2.794 2.387-2.783 4.516 0.003 0.637-0.011 0.871-0.011 0.871h16c0 0-0.011-0.234-0.011-0.871zM18.528 13.365c-1.135-0.457-1.605-1.002-1.605-2.066 0-0.641 0.418-0.432 0.602-1.603 0.077-0.484 0.447-0.008 0.518-1.115 0-0.441-0.202-0.551-0.202-0.551s0.103-0.656 0.143-1.159c0.050-0.627-0.364-2.247-2.268-2.247s-2.318 1.62-2.269 2.247c0.042 0.502 0.144 1.159 0.144 1.159s-0.202 0.109-0.202 0.551c0.071 1.107 0.441 0.631 0.518 1.115 0.184 1.172 0.602 0.963 0.602 1.603 0 1.064-0.438 1.562-1.809 2.152-0.069 0.029-0.12 0.068-0.183 0.102 1.64 0.712 4.226 1.941 4.838 4.447h2.645c0 0 0-1.906 0-2.318 0-1-0.273-1.834-1.472-2.317z"></path>
</symbol>
<symbol id="icon-accessibility" viewBox="0 0 24 24">
<title>accessibility</title>
<path d="M21 9h-6v12.984h-2.016v-6h-1.969v6h-2.016v-12.984h-6v-2.016h18v2.016zM12 2.016c1.078 0 2.016 0.891 2.016 1.969s-0.938 2.016-2.016 2.016-2.016-0.938-2.016-2.016 0.938-1.969 2.016-1.969z"></path>
</symbol>
<symbol id="icon-directions_bike" viewBox="0 0 24 24">
<title>directions_bike</title>
<path d="M18.984 20.484c1.922 0 3.516-1.547 3.516-3.469s-1.594-3.516-3.516-3.516-3.469 1.594-3.469 3.516 1.547 3.469 3.469 3.469zM18.984 12c2.813 0 5.016 2.203 5.016 5.016s-2.203 4.969-5.016 4.969-4.969-2.156-4.969-4.969 2.156-5.016 4.969-5.016zM10.781 10.5l2.203 2.297v6.188h-1.969v-4.969l-3.234-2.813c-0.422-0.281-0.563-0.797-0.563-1.406 0-0.516 0.141-0.984 0.563-1.406l2.813-2.813c0.281-0.422 0.797-0.563 1.406-0.563s1.078 0.141 1.594 0.563l1.922 1.922c0.891 0.891 2.063 1.5 3.563 1.5v2.016c-2.109 0-3.75-0.797-5.063-2.109l-0.797-0.797zM5.016 20.484c1.922 0 3.469-1.547 3.469-3.469s-1.547-3.516-3.469-3.516-3.516 1.594-3.516 3.516 1.594 3.469 3.516 3.469zM5.016 12c2.813 0 4.969 2.203 4.969 5.016s-2.156 4.969-4.969 4.969-5.016-2.156-5.016-4.969 2.203-5.016 5.016-5.016zM15.516 5.484c-1.078 0-2.016-0.891-2.016-1.969s0.938-2.016 2.016-2.016 1.969 0.938 1.969 2.016-0.891 1.969-1.969 1.969z"></path>
</symbol>
<symbol id="icon-restaurant" viewBox="0 0 24 24">
<title>restaurant</title>
<path d="M15.984 6c0-1.781 2.25-3.984 5.016-3.984v19.969h-2.484v-7.969h-2.531v-8.016zM11.016 9v-6.984h1.969v6.984c0 2.109-1.641 3.844-3.75 3.984v9h-2.484v-9c-2.109-0.141-3.75-1.875-3.75-3.984v-6.984h2.016v6.984h1.969v-6.984h2.016v6.984h2.016z"></path>
</symbol>
</defs>
</svg>
